#!OML:ASF E:\inclinewalkrobotboard\Project 1\Capture day 1\Session 1\subject1.ASF
:FULLY-SPECIFIED
:DEGREES
410
root 9.19694 27.8 -10.631 -168.151 2.33159 180.081
lowerback -6.36896 0.923231 -6.06602
upperback 2.37315 1.68068 1.8048
thorax 5.84581 0.570627 5.50357
lowerneck 3.79025 -0.183621 -6.07799
upperneck 22.7074 -3.56663 3.61903
head 6.42212 -2.96061 1.93251
rclavicle 9.44227e-016 1.19271e-015
rhumerus -38.4511 -24.1926 -74.6487
rradius 30.5621
rwrist 9.76408
rhand -13.691 -36.8922
rfingers 7.12502
rthumb 12.427 -66.5028
lclavicle 9.44227e-016 1.19271e-015
lhumerus -29.3455 7.61031 84.9532
lradius 24.0186
lwrist -23.1128
lhand -23.8917 -18.7798
lfingers 7.12502
lthumb 2.58198 11.1843
rfemur -12.2357 7.47077 20.0147
rtibia 14.9468
rfoot -29.3542 -3.09319
rtoes -19.4235
lfemur -9.75382 -12.1568 -20.1316
ltibia 14.3549
lfoot -33.5887 8.45684
ltoes -64.0055
411
root 9.20542 27.8006 -10.6357 -168.205 2.21865 180.074
lowerback -6.31483 0.985011 -6.16828
upperback 2.33321 1.76699 1.81286
thorax 5.75785 0.613596 5.57637
lowerneck 3.6434 -0.190415 -6.28867
upperneck 22.7671 -3.56856 3.72567
head 6.47108 -2.96488 2.00083
rclavicle 1.73937e-014 -7.95139e-015
rhumerus -38.3998 -24.3757 -74.6305
rradius 30.4565
rwrist 9.8233
rhand -13.7737 -36.4595
rfingers 7.12502
rthumb 12.3473 -66.0749
lclavicle 1.73937e-014 -7.95139e-015
lhumerus -29.3273 7.03924 85.3684
lradius 24.679
lwrist -22.5789
lhand -23.649 -18.6754
lfingers 7.12502
lthumb 2.81632 11.2857
rfemur -12.1819 7.73087 20.0521
rtibia 15.0134
rfoot -29.418 -3.53655
rtoes -19.8773
lfemur -9.75604 -12.1713 -20.0398
ltibia 14.4117
lfoot -33.5381 8.53566
ltoes -64.098
412
root 9.21515 27.8024 -10.6415 -168.284 2.17587 180.029
lowerback -6.24631 1.12883 -6.28738
upperback 2.22107 1.96337 1.75089
thorax 5.57066 0.717051 5.59257
lowerneck 4.11103 -0.226218 -6.11801
upperneck 22.5689 -3.65549 3.74164
head 6.33038 -2.99943 1.98046
rclavicle 1.33186e-014 1.51076e-014
rhumerus -38.7453 -24.6164 -74.5395
rradius 30.5553
rwrist 9.99351
rhand -13.7559 -36.2288
rfingers 7.12502
rthumb 12.3644 -65.8432
lclavicle 1.33186e-014 1.51076e-014
lhumerus -29.6278 6.24052 85.7197
lradius 25.4505
lwrist -22.4676
lhand -23.7085 -18.7481
lfingers 7.12502
lthumb 2.75892 11.2138
rfemur -12.1124 8.08046 20.0464
rtibia 15.11
rfoot -29.5343 -3.96238
rtoes -20.3019
lfemur -9.76554 -12.0703 -19.9881
ltibia 14.5465
lfoot -33.5845 8.52293
ltoes -64.2076
413
root 9.21636 27.8013 -10.6561 -168.36 2.13804 179.981
lowerback -6.31595 1.0721 -6.40207
upperback 2.29131 1.90113 1.82658
thorax 5.68892 0.674487 5.73665
lowerneck 4.34006 -0.131103 -6.05995
upperneck 22.2605 -3.45749 3.58291
head 6.17973 -2.898 1.93361
rclavicle 1.72943e-014 -9.34288e-015
rhumerus -38.5098 -24.1482 -74.7677
rradius 30.7068
rwrist 10.0417
rhand -13.8783 -36.7388
rfingers 7.12502
rthumb 12.2464 -66.3602
lclavicle 1.72943e-014 -9.34288e-015
lhumerus -29.8438 6.08516 86.1067
lradius 26.3218
lwrist -22.2573
lhand -23.8277 -18.9266
lfingers 7.12502
lthumb 2.64373 11.0368
rfemur -11.9701 8.21271 20.0104
rtibia 15.1289
rfoot -29.5722 -4.0621
rtoes -20.2799
lfemur -9.65392 -12.0468 -20.0549
ltibia 14.5854
lfoot -33.653 8.5518
ltoes -64.3367
414
root 9.21621 27.7991 -10.6696 -168.381 1.91305 179.928
lowerback -6.45488 1.12113 -6.38642
upperback 2.31777 1.97736 1.77361
thorax 5.78746 0.708762 5.68513
lowerneck 4.46998 -0.210459 -6.00799
upperneck 22.0795 -3.56053 3.68984
head 6.10583 -2.92643 1.95837
rclavicle 7.65321e-015 3.39922e-014
rhumerus -38.4994 -24.2773 -74.8166
rradius 30.7802
rwrist 10.0994
rhand -13.8263 -37.2421
rfingers 7.12502
rthumb 12.2966 -66.8605
lclavicle 7.65321e-015 3.39922e-014
lhumerus -29.9406 5.16434 86.5424
lradius 27.0708
lwrist -21.6239
lhand -23.8654 -19.0114
lfingers 7.12502
lthumb 2.60731 10.9524
rfemur -11.8185 8.12173 20.0039
rtibia 15.0688
rfoot -29.5585 -4.17522
rtoes -20.1674
lfemur -9.61042 -12.1227 -20.1316
ltibia 14.6139
lfoot -33.6324 8.64091
ltoes -64.6072
415
root 9.2138 27.7986 -10.6875 -168.478 1.72621 179.838
lowerback -6.52754 1.27959 -6.29951
upperback 2.31918 2.193 1.62614
thorax 5.80696 0.820148 5.50403
lowerneck 4.5562 -0.394022 -5.85048
upperneck 21.9533 -3.81007 3.79024
head 6.06302 -3.01831 1.95628
rclavicle 3.67752e-015 -3.97569e-015
rhumerus -38.7478 -24.9911 -74.5327
rradius 30.6383
rwrist 10.3985
rhand -13.7033 -37.0019
rfingers 7.12502
rthumb 12.4152 -66.6132
lclavicle 3.67752e-015 -3.97569e-015
lhumerus -29.8888 3.91403 86.976
lradius 27.5537
lwrist -20.8913
lhand -23.8663 -19.0559
lfingers 7.12502
lthumb 2.60648 10.9079
rfemur -11.5627 8.03095 19.9413
rtibia 14.9902
rfoot -29.6067 -4.32216
rtoes -20.1425
lfemur -9.39495 -12.3103 -20.2961
ltibia 14.5339
lfoot -33.609 8.70073
ltoes -64.6606
416
root 9.21545 27.7982 -10.6972 -168.451 1.53513 179.856
lowerback -6.54376 1.35844 -6.17062
upperback 2.20397 2.28655 1.55369
thorax 5.68735 0.87942 5.36085
lowerneck 4.98904 -0.428872 -5.5946
upperneck 21.6718 -3.85922 3.77592
head 5.89928 -3.02361 1.91495
rclavicle 1.6847e-014 7.15625e-015
rhumerus -39.0473 -25.5491 -74.1991
rradius 30.3599
rwrist 10.7757
rhand -13.7987 -36.4214
rfingers 7.12502
rthumb 12.3232 -66.0382
lclavicle 1.6847e-014 7.15625e-015
lhumerus -30.0214 3.00014 87.3059
lradius 28.0062
lwrist -20.3842
lhand -23.8678 -18.8355
lfingers 7.12502
lthumb 2.60499 11.1283
rfemur -11.5179 8.01725 19.9959
rtibia 14.9812
rfoot -29.686 -4.44924
rtoes -20.022
lfemur -9.40827 -12.3757 -20.2446
ltibia 14.5389
lfoot -33.5773 8.45573
ltoes -64.473
417
root 9.21259 27.7958 -10.7131 -168.435 1.56458 179.888
lowerback -6.75997 1.3773 -6.07942
upperback 2.19521 2.31687 1.54126
thorax 5.80085 0.893235 5.308
lowerneck 4.93576 -0.308416 -5.82926
upperneck 21.6667 -3.68086 3.82654
head 5.90172 -2.94758 1.97733
rclavicle 9.64106e-015 -7.35503e-015
rhumerus -38.9823 -25.5832 -74.1124
rradius 29.9932
rwrist 10.8719
rhand -13.9149 -36.2844
rfingers 7.12502
rthumb 12.2112 -65.908
lclavicle 9.64106e-015 -7.35503e-015
lhumerus -30.1143 2.82739 87.4911
lradius 28.2212
lwrist -20.4587
lhand -24.1868 -18.7325
lfingers 7.12502
lthumb 2.297 11.2349
rfemur -11.4952 7.99078 20.0023
rtibia 15.0071
rfoot -29.7451 -4.34778
rtoes -19.9276
lfemur -9.2673 -12.4553 -20.2523
ltibia 14.3822
lfoot -33.6142 8.38578
ltoes -64.3217
418
root 9.20961 27.7939 -10.7263 -168.523 1.55481 179.81
lowerback -6.862 1.37594 -6.12921
upperback 2.23588 2.32779 1.53204
thorax 5.89974 0.891966 5.3332
lowerneck 5.13911 -0.317222 -6.01222
upperneck 21.6037 -3.72771 3.89055
head 5.85433 -2.98707 2.02991
rclavicle 3.05631e-014 -9.93923e-016
rhumerus -38.9415 -25.3935 -74.108
rradius 29.8026
rwrist 10.6844
rhand -14.0654 -36.7636
rfingers 7.12502
rthumb 12.0661 -66.3957
lclavicle 3.05631e-014 -9.93923e-016
lhumerus -30.083 2.97933 87.6071
lradius 28.151
lwrist -20.6611
lhand -24.4126 -19.138
lfingers 7.12502
lthumb 2.07888 10.8316
rfemur -11.4017 7.87447 19.9067
rtibia 15.1167
rfoot -29.9037 -4.20283
rtoes -19.9067
lfemur -9.00128 -12.531 -20.4102
ltibia 14.1818
lfoot -33.6448 8.30817
ltoes -64.2592
419
root 9.21155 27.7915 -10.7289 -168.474 1.34896 179.784
lowerback -6.83339 1.33745 -6.1268
upperback 2.17037 2.27176 1.53095
thorax 5.8215 0.868823 5.32155
lowerneck 5.0994 -0.25377 -5.98053
upperneck 21.5959 -3.63486 3.94715
head 5.85333 -2.93262 2.04598
rclavicle -8.39865e-015 -9.93923e-016
rhumerus -39.1187 -25.3611 -74.0317
rradius 29.7333
rwrist 10.6592
rhand -14.2772 -37.4532
rfingers 7.12502
rthumb 11.8618 -67.0972
lclavicle -8.39865e-015 -9.93923e-016
lhumerus -30.0901 3.12911 87.6575
lradius 28.0894
lwrist -20.7457
lhand -24.3802 -19.5842
lfingers 7.12502
lthumb 2.1102 10.3851
rfemur -11.5305 7.82804 19.9084
rtibia 15.3638
rfoot -30.1215 -4.2972
rtoes -19.8489
lfemur -9.11319 -12.5294 -20.3856
ltibia 14.2488
lfoot -33.6298 8.10732
ltoes -64.2746
